<mxfile host="app.diagrams.net" modified="2024-04-15T14:35:52.073Z" agent="Mozilla/5.0 (Windows NT 10.0; Win64; x64) AppleWebKit/537.36 (KHTML, like Gecko) Chrome/123.0.0.0 Safari/537.36" etag="J2bdR8M7vk6VnA9cnOUO" version="24.2.5" type="device">
  <diagram name="Pagina-1" id="Jr-wzTEaygCXRyQKF_6q">
    <mxGraphModel dx="724" dy="870" grid="1" gridSize="5" guides="1" tooltips="1" connect="1" arrows="1" fold="1" page="0" pageScale="1" pageWidth="1169" pageHeight="827" math="0" shadow="0">
      <root>
        <mxCell id="0" />
        <mxCell id="1" parent="0" />
        <mxCell id="_hSvrLxpq3SHQPdKkPpQ-9" value="" style="group;direction=east;rotation=-90;" parent="1" vertex="1" connectable="0">
          <mxGeometry x="220" y="-120.00000000000001" width="120" height="40.00000000000003" as="geometry" />
        </mxCell>
        <mxCell id="_hSvrLxpq3SHQPdKkPpQ-2" value="" style="endArrow=none;html=1;rounded=0;curved=1;" parent="_hSvrLxpq3SHQPdKkPpQ-9" edge="1">
          <mxGeometry width="50" height="50" relative="1" as="geometry">
            <mxPoint x="40" y="80" as="sourcePoint" />
            <mxPoint x="40" y="30" as="targetPoint" />
          </mxGeometry>
        </mxCell>
        <mxCell id="_hSvrLxpq3SHQPdKkPpQ-3" value="" style="endArrow=none;html=1;rounded=0;curved=1;" parent="_hSvrLxpq3SHQPdKkPpQ-9" edge="1">
          <mxGeometry width="50" height="50" relative="1" as="geometry">
            <mxPoint x="40" y="30" as="sourcePoint" />
            <mxPoint x="60" y="20" as="targetPoint" />
          </mxGeometry>
        </mxCell>
        <mxCell id="_hSvrLxpq3SHQPdKkPpQ-4" value="" style="endArrow=none;html=1;rounded=0;curved=1;" parent="_hSvrLxpq3SHQPdKkPpQ-9" edge="1">
          <mxGeometry width="50" height="50" relative="1" as="geometry">
            <mxPoint x="60" y="20" as="sourcePoint" />
            <mxPoint x="40" y="10" as="targetPoint" />
          </mxGeometry>
        </mxCell>
        <mxCell id="_hSvrLxpq3SHQPdKkPpQ-5" value="" style="endArrow=none;html=1;rounded=0;curved=1;" parent="_hSvrLxpq3SHQPdKkPpQ-9" edge="1">
          <mxGeometry width="50" height="50" relative="1" as="geometry">
            <mxPoint x="40" y="10" as="sourcePoint" />
            <mxPoint x="40" y="-40" as="targetPoint" />
          </mxGeometry>
        </mxCell>
        <mxCell id="_hSvrLxpq3SHQPdKkPpQ-6" value="" style="endArrow=none;html=1;rounded=0;curved=1;" parent="_hSvrLxpq3SHQPdKkPpQ-9" edge="1">
          <mxGeometry width="50" height="50" relative="1" as="geometry">
            <mxPoint x="80" y="60" as="sourcePoint" />
            <mxPoint x="40" y="80" as="targetPoint" />
          </mxGeometry>
        </mxCell>
        <mxCell id="_hSvrLxpq3SHQPdKkPpQ-7" value="" style="endArrow=none;html=1;rounded=0;curved=1;" parent="_hSvrLxpq3SHQPdKkPpQ-9" edge="1">
          <mxGeometry width="50" height="50" relative="1" as="geometry">
            <mxPoint x="80" y="60" as="sourcePoint" />
            <mxPoint x="80" y="-20" as="targetPoint" />
          </mxGeometry>
        </mxCell>
        <mxCell id="_hSvrLxpq3SHQPdKkPpQ-8" value="" style="endArrow=none;html=1;rounded=0;" parent="_hSvrLxpq3SHQPdKkPpQ-9" edge="1">
          <mxGeometry width="50" height="50" relative="1" as="geometry">
            <mxPoint x="40" y="-40" as="sourcePoint" />
            <mxPoint x="80" y="-20" as="targetPoint" />
            <Array as="points" />
          </mxGeometry>
        </mxCell>
        <mxCell id="_hSvrLxpq3SHQPdKkPpQ-11" style="edgeStyle=orthogonalEdgeStyle;rounded=0;orthogonalLoop=1;jettySize=auto;html=1;exitX=0.5;exitY=1;exitDx=0;exitDy=0;endArrow=none;endFill=0;" parent="1" source="_hSvrLxpq3SHQPdKkPpQ-10" edge="1">
          <mxGeometry relative="1" as="geometry">
            <mxPoint x="260" y="-135" as="targetPoint" />
          </mxGeometry>
        </mxCell>
        <mxCell id="_hSvrLxpq3SHQPdKkPpQ-10" value="00&lt;br&gt;01&lt;br&gt;10&lt;br&gt;11" style="shape=trapezoid;perimeter=trapezoidPerimeter;whiteSpace=wrap;html=1;fixedSize=1;rotation=0;size=10;direction=north;horizontal=1;flipV=1;flipH=1;" parent="1" vertex="1">
          <mxGeometry x="198" y="-190" width="22" height="80" as="geometry" />
        </mxCell>
        <mxCell id="_hSvrLxpq3SHQPdKkPpQ-13" style="edgeStyle=orthogonalEdgeStyle;rounded=0;orthogonalLoop=1;jettySize=auto;html=1;exitX=0.5;exitY=1;exitDx=0;exitDy=0;startArrow=none;startFill=0;endArrow=none;endFill=0;" parent="1" source="_hSvrLxpq3SHQPdKkPpQ-12" edge="1">
          <mxGeometry relative="1" as="geometry">
            <mxPoint x="260" y="-70" as="targetPoint" />
          </mxGeometry>
        </mxCell>
        <mxCell id="_hSvrLxpq3SHQPdKkPpQ-75" style="edgeStyle=orthogonalEdgeStyle;rounded=0;orthogonalLoop=1;jettySize=auto;html=1;exitX=0;exitY=0.5;exitDx=0;exitDy=0;endArrow=none;endFill=0;" parent="1" source="_hSvrLxpq3SHQPdKkPpQ-12" edge="1">
          <mxGeometry relative="1" as="geometry">
            <mxPoint x="235" y="-10" as="targetPoint" />
            <Array as="points">
              <mxPoint x="209" y="-15" />
              <mxPoint x="209" y="-15" />
            </Array>
          </mxGeometry>
        </mxCell>
        <mxCell id="_hSvrLxpq3SHQPdKkPpQ-12" value="00&lt;br&gt;01&lt;br&gt;10&lt;br&gt;11" style="shape=trapezoid;perimeter=trapezoidPerimeter;whiteSpace=wrap;html=1;fixedSize=1;rotation=0;size=10;direction=north;horizontal=1;flipV=1;flipH=1;" parent="1" vertex="1">
          <mxGeometry x="198" y="-100" width="22" height="80" as="geometry" />
        </mxCell>
        <mxCell id="_hSvrLxpq3SHQPdKkPpQ-48" style="edgeStyle=orthogonalEdgeStyle;rounded=0;orthogonalLoop=1;jettySize=auto;html=1;exitX=0;exitY=0.5;exitDx=0;exitDy=0;entryX=0;entryY=0.5;entryDx=0;entryDy=0;" parent="1" target="_hSvrLxpq3SHQPdKkPpQ-37" edge="1">
          <mxGeometry relative="1" as="geometry">
            <mxPoint x="300" y="-102.42857142857144" as="sourcePoint" />
          </mxGeometry>
        </mxCell>
        <mxCell id="_hSvrLxpq3SHQPdKkPpQ-37" value="" style="rounded=0;whiteSpace=wrap;html=1;" parent="1" vertex="1">
          <mxGeometry x="320" y="-135" width="35" height="65" as="geometry" />
        </mxCell>
        <mxCell id="_hSvrLxpq3SHQPdKkPpQ-38" value="" style="endArrow=none;html=1;rounded=0;curved=1;" parent="1" edge="1">
          <mxGeometry width="50" height="50" relative="1" as="geometry">
            <mxPoint x="320" y="-70" as="sourcePoint" />
            <mxPoint x="340" y="-80" as="targetPoint" />
          </mxGeometry>
        </mxCell>
        <mxCell id="_hSvrLxpq3SHQPdKkPpQ-39" value="" style="endArrow=none;html=1;rounded=0;curved=1;" parent="1" edge="1">
          <mxGeometry width="50" height="50" relative="1" as="geometry">
            <mxPoint x="320" y="-88" as="sourcePoint" />
            <mxPoint x="340" y="-80" as="targetPoint" />
          </mxGeometry>
        </mxCell>
        <mxCell id="_hSvrLxpq3SHQPdKkPpQ-49" style="edgeStyle=orthogonalEdgeStyle;rounded=0;orthogonalLoop=1;jettySize=auto;html=1;exitX=1;exitY=0.5;exitDx=0;exitDy=0;endArrow=none;endFill=0;" parent="1" source="_hSvrLxpq3SHQPdKkPpQ-37" edge="1">
          <mxGeometry relative="1" as="geometry">
            <Array as="points">
              <mxPoint x="375" y="-102" />
              <mxPoint x="375" y="10" />
              <mxPoint x="140" y="10" />
              <mxPoint x="140" y="-50" />
              <mxPoint x="198" y="-50" />
            </Array>
            <mxPoint x="195" y="-50" as="targetPoint" />
          </mxGeometry>
        </mxCell>
        <mxCell id="_hSvrLxpq3SHQPdKkPpQ-50" style="edgeStyle=orthogonalEdgeStyle;rounded=0;orthogonalLoop=1;jettySize=auto;html=1;exitX=1;exitY=0.5;exitDx=0;exitDy=0;endArrow=none;endFill=0;entryX=0.376;entryY=0.993;entryDx=0;entryDy=0;entryPerimeter=0;" parent="1" source="_hSvrLxpq3SHQPdKkPpQ-37" target="_hSvrLxpq3SHQPdKkPpQ-10" edge="1">
          <mxGeometry relative="1" as="geometry">
            <Array as="points">
              <mxPoint x="375" y="-102" />
              <mxPoint x="375" y="-220" />
              <mxPoint x="140" y="-220" />
              <mxPoint x="140" y="-160" />
              <mxPoint x="198" y="-160" />
            </Array>
            <mxPoint x="185" y="-160" as="targetPoint" />
          </mxGeometry>
        </mxCell>
        <mxCell id="_hSvrLxpq3SHQPdKkPpQ-51" value="A" style="text;html=1;align=center;verticalAlign=middle;resizable=0;points=[];autosize=1;strokeColor=none;fillColor=none;" parent="1" vertex="1">
          <mxGeometry x="145" y="-190" width="30" height="30" as="geometry" />
        </mxCell>
        <mxCell id="_hSvrLxpq3SHQPdKkPpQ-52" value="C" style="text;html=1;align=center;verticalAlign=middle;resizable=0;points=[];autosize=1;strokeColor=none;fillColor=none;" parent="1" vertex="1">
          <mxGeometry x="144.98000000000002" y="-50" width="30" height="30" as="geometry" />
        </mxCell>
        <mxCell id="_hSvrLxpq3SHQPdKkPpQ-53" value="D" style="text;html=1;align=center;verticalAlign=middle;resizable=0;points=[];autosize=1;strokeColor=none;fillColor=none;" parent="1" vertex="1">
          <mxGeometry x="144.98" y="-155" width="30" height="30" as="geometry" />
        </mxCell>
        <mxCell id="_hSvrLxpq3SHQPdKkPpQ-54" value="B" style="text;html=1;align=center;verticalAlign=middle;resizable=0;points=[];autosize=1;strokeColor=none;fillColor=none;" parent="1" vertex="1">
          <mxGeometry x="145" y="-95" width="30" height="30" as="geometry" />
        </mxCell>
        <mxCell id="_hSvrLxpq3SHQPdKkPpQ-55" value="F" style="text;html=1;align=center;verticalAlign=middle;resizable=0;points=[];autosize=1;strokeColor=none;fillColor=none;" parent="1" vertex="1">
          <mxGeometry x="145" y="-140" width="30" height="30" as="geometry" />
        </mxCell>
        <mxCell id="_hSvrLxpq3SHQPdKkPpQ-56" value="E" style="text;html=1;align=center;verticalAlign=middle;resizable=0;points=[];autosize=1;strokeColor=none;fillColor=none;" parent="1" vertex="1">
          <mxGeometry x="144.98" y="-80" width="30" height="30" as="geometry" />
        </mxCell>
        <mxCell id="_hSvrLxpq3SHQPdKkPpQ-59" value="" style="endArrow=none;html=1;rounded=0;endSize=6;entryX=0.224;entryY=1.001;entryDx=0;entryDy=0;entryPerimeter=0;strokeWidth=1;endFill=0;" parent="1" target="_hSvrLxpq3SHQPdKkPpQ-12" edge="1">
          <mxGeometry width="50" height="50" relative="1" as="geometry">
            <mxPoint x="170" y="-82" as="sourcePoint" />
            <mxPoint x="280" y="-105" as="targetPoint" />
          </mxGeometry>
        </mxCell>
        <mxCell id="_hSvrLxpq3SHQPdKkPpQ-60" value="" style="endArrow=none;html=1;rounded=0;endSize=6;entryX=0.224;entryY=1.001;entryDx=0;entryDy=0;entryPerimeter=0;strokeWidth=1;endFill=0;" parent="1" edge="1">
          <mxGeometry width="50" height="50" relative="1" as="geometry">
            <mxPoint x="170" y="-125.09" as="sourcePoint" />
            <mxPoint x="198" y="-125.09" as="targetPoint" />
          </mxGeometry>
        </mxCell>
        <mxCell id="_hSvrLxpq3SHQPdKkPpQ-61" value="" style="endArrow=none;html=1;rounded=0;endSize=6;entryX=0.224;entryY=1.001;entryDx=0;entryDy=0;entryPerimeter=0;strokeWidth=1;endFill=0;" parent="1" edge="1">
          <mxGeometry width="50" height="50" relative="1" as="geometry">
            <mxPoint x="169.98" y="-65" as="sourcePoint" />
            <mxPoint x="197.98" y="-65" as="targetPoint" />
          </mxGeometry>
        </mxCell>
        <mxCell id="_hSvrLxpq3SHQPdKkPpQ-62" value="" style="endArrow=none;html=1;rounded=0;endSize=6;entryX=0.224;entryY=1.001;entryDx=0;entryDy=0;entryPerimeter=0;strokeWidth=1;endFill=0;" parent="1" edge="1">
          <mxGeometry width="50" height="50" relative="1" as="geometry">
            <mxPoint x="170" y="-139.92000000000002" as="sourcePoint" />
            <mxPoint x="198" y="-139.92000000000002" as="targetPoint" />
          </mxGeometry>
        </mxCell>
        <mxCell id="_hSvrLxpq3SHQPdKkPpQ-63" value="" style="endArrow=none;html=1;rounded=0;endSize=6;entryX=0.224;entryY=1.001;entryDx=0;entryDy=0;entryPerimeter=0;strokeWidth=1;endFill=0;" parent="1" edge="1">
          <mxGeometry width="50" height="50" relative="1" as="geometry">
            <mxPoint x="169.98000000000002" y="-35" as="sourcePoint" />
            <mxPoint x="197.98000000000002" y="-35" as="targetPoint" />
          </mxGeometry>
        </mxCell>
        <mxCell id="_hSvrLxpq3SHQPdKkPpQ-64" value="" style="endArrow=none;html=1;rounded=0;endSize=6;entryX=0.224;entryY=1.001;entryDx=0;entryDy=0;entryPerimeter=0;strokeWidth=1;endFill=0;" parent="1" edge="1">
          <mxGeometry width="50" height="50" relative="1" as="geometry">
            <mxPoint x="170" y="-175" as="sourcePoint" />
            <mxPoint x="198" y="-175" as="targetPoint" />
          </mxGeometry>
        </mxCell>
        <mxCell id="_hSvrLxpq3SHQPdKkPpQ-79" value="" style="endArrow=none;html=1;rounded=0;" parent="1" edge="1">
          <mxGeometry width="50" height="50" relative="1" as="geometry">
            <mxPoint x="225" y="-15.739999999998872" as="sourcePoint" />
            <mxPoint x="215" y="-6.260000000000218" as="targetPoint" />
            <Array as="points" />
          </mxGeometry>
        </mxCell>
        <mxCell id="_hSvrLxpq3SHQPdKkPpQ-80" value="2" style="text;html=1;align=center;verticalAlign=middle;resizable=0;points=[];autosize=1;strokeColor=none;fillColor=none;fontSize=9;" parent="1" vertex="1">
          <mxGeometry x="210" y="-15" width="25" height="25" as="geometry" />
        </mxCell>
        <mxCell id="_hSvrLxpq3SHQPdKkPpQ-85" value="S&lt;span style=&quot;font-size: 10px;&quot;&gt;&lt;sub&gt;3&lt;/sub&gt;&lt;/span&gt;S&lt;sub&gt;2&lt;/sub&gt;" style="text;html=1;align=center;verticalAlign=middle;resizable=0;points=[];autosize=1;strokeColor=none;fillColor=none;" parent="1" vertex="1">
          <mxGeometry x="228" y="-27" width="45" height="30" as="geometry" />
        </mxCell>
        <mxCell id="_hSvrLxpq3SHQPdKkPpQ-86" style="edgeStyle=orthogonalEdgeStyle;rounded=0;orthogonalLoop=1;jettySize=auto;html=1;exitX=1;exitY=0.5;exitDx=0;exitDy=0;endArrow=none;endFill=0;" parent="1" source="_hSvrLxpq3SHQPdKkPpQ-10" edge="1">
          <mxGeometry relative="1" as="geometry">
            <mxPoint x="235" y="-195" as="targetPoint" />
            <mxPoint x="209" y="-210" as="sourcePoint" />
            <Array as="points">
              <mxPoint x="209" y="-195" />
            </Array>
          </mxGeometry>
        </mxCell>
        <mxCell id="_hSvrLxpq3SHQPdKkPpQ-87" value="" style="endArrow=none;html=1;rounded=0;" parent="1" edge="1">
          <mxGeometry width="50" height="50" relative="1" as="geometry">
            <mxPoint x="225" y="-200.73999999999887" as="sourcePoint" />
            <mxPoint x="215" y="-191.26000000000022" as="targetPoint" />
            <Array as="points" />
          </mxGeometry>
        </mxCell>
        <mxCell id="_hSvrLxpq3SHQPdKkPpQ-88" value="2" style="text;html=1;align=center;verticalAlign=middle;resizable=0;points=[];autosize=1;strokeColor=none;fillColor=none;fontSize=9;" parent="1" vertex="1">
          <mxGeometry x="210" y="-200" width="25" height="25" as="geometry" />
        </mxCell>
        <mxCell id="_hSvrLxpq3SHQPdKkPpQ-89" value="S&lt;sub&gt;1&lt;/sub&gt;S&lt;span style=&quot;font-size: 10px;&quot;&gt;&lt;sub&gt;0&lt;/sub&gt;&lt;/span&gt;" style="text;html=1;align=center;verticalAlign=middle;resizable=0;points=[];autosize=1;strokeColor=none;fillColor=none;" parent="1" vertex="1">
          <mxGeometry x="228" y="-212" width="45" height="30" as="geometry" />
        </mxCell>
        <mxCell id="VLnAZFGWWy1XBWKnYpFV-2" style="rounded=0;orthogonalLoop=1;jettySize=auto;html=1;entryX=1;entryY=0;entryDx=0;entryDy=0;" parent="1" source="VLnAZFGWWy1XBWKnYpFV-3" target="VLnAZFGWWy1XBWKnYpFV-1" edge="1">
          <mxGeometry relative="1" as="geometry">
            <mxPoint x="625" y="-245" as="sourcePoint" />
          </mxGeometry>
        </mxCell>
        <mxCell id="VLnAZFGWWy1XBWKnYpFV-22" value="" style="edgeStyle=orthogonalEdgeStyle;rounded=0;orthogonalLoop=1;jettySize=auto;html=1;" parent="1" source="VLnAZFGWWy1XBWKnYpFV-1" target="VLnAZFGWWy1XBWKnYpFV-18" edge="1">
          <mxGeometry relative="1" as="geometry" />
        </mxCell>
        <mxCell id="VLnAZFGWWy1XBWKnYpFV-1" value="&lt;font color=&quot;#ff0303&quot;&gt;00001, X = A+B&lt;/font&gt;&lt;div&gt;S&lt;sub&gt;1&lt;/sub&gt;S&lt;sub&gt;0&lt;/sub&gt; = 00&lt;/div&gt;&lt;div&gt;S&lt;sub&gt;3&lt;/sub&gt;S&lt;sub&gt;2&lt;/sub&gt;&amp;nbsp;= 00&lt;br&gt;&lt;/div&gt;" style="ellipse;whiteSpace=wrap;html=1;" parent="1" vertex="1">
          <mxGeometry x="530" y="-220" width="135" height="80" as="geometry" />
        </mxCell>
        <mxCell id="VLnAZFGWWy1XBWKnYpFV-3" value="RESET" style="text;html=1;align=center;verticalAlign=middle;resizable=0;points=[];autosize=1;strokeColor=none;fillColor=none;" parent="1" vertex="1">
          <mxGeometry x="655" y="-265" width="60" height="30" as="geometry" />
        </mxCell>
        <mxCell id="VLnAZFGWWy1XBWKnYpFV-23" value="" style="edgeStyle=orthogonalEdgeStyle;rounded=0;orthogonalLoop=1;jettySize=auto;html=1;" parent="1" source="VLnAZFGWWy1XBWKnYpFV-18" target="VLnAZFGWWy1XBWKnYpFV-19" edge="1">
          <mxGeometry relative="1" as="geometry" />
        </mxCell>
        <mxCell id="VLnAZFGWWy1XBWKnYpFV-18" value="&lt;font color=&quot;#ff0303&quot;&gt;00010, X = X+C&lt;/font&gt;&lt;div&gt;S&lt;sub&gt;1&lt;/sub&gt;S&lt;sub&gt;0&lt;/sub&gt; = 01&lt;/div&gt;&lt;div&gt;S&lt;sub&gt;3&lt;/sub&gt;S&lt;sub&gt;2&lt;/sub&gt;&amp;nbsp;= 11&lt;br&gt;&lt;/div&gt;" style="ellipse;whiteSpace=wrap;html=1;" parent="1" vertex="1">
          <mxGeometry x="530" y="-110" width="135" height="80" as="geometry" />
        </mxCell>
        <mxCell id="VLnAZFGWWy1XBWKnYpFV-24" value="" style="edgeStyle=orthogonalEdgeStyle;rounded=0;orthogonalLoop=1;jettySize=auto;html=1;" parent="1" source="VLnAZFGWWy1XBWKnYpFV-19" target="VLnAZFGWWy1XBWKnYpFV-20" edge="1">
          <mxGeometry relative="1" as="geometry" />
        </mxCell>
        <mxCell id="VLnAZFGWWy1XBWKnYpFV-19" value="&lt;font color=&quot;#ff0303&quot;&gt;00100, X = D+X&lt;/font&gt;&lt;div&gt;S&lt;sub&gt;1&lt;/sub&gt;S&lt;sub&gt;0&lt;/sub&gt; = 10&lt;/div&gt;&lt;div&gt;S&lt;sub&gt;3&lt;/sub&gt;S&lt;sub&gt;2&lt;/sub&gt;&amp;nbsp;= 10&lt;br&gt;&lt;/div&gt;" style="ellipse;whiteSpace=wrap;html=1;" parent="1" vertex="1">
          <mxGeometry x="530" y="-5" width="135" height="80" as="geometry" />
        </mxCell>
        <mxCell id="VLnAZFGWWy1XBWKnYpFV-25" value="" style="edgeStyle=orthogonalEdgeStyle;rounded=0;orthogonalLoop=1;jettySize=auto;html=1;" parent="1" source="VLnAZFGWWy1XBWKnYpFV-20" target="VLnAZFGWWy1XBWKnYpFV-21" edge="1">
          <mxGeometry relative="1" as="geometry" />
        </mxCell>
        <mxCell id="VLnAZFGWWy1XBWKnYpFV-20" value="&lt;font color=&quot;#ff0303&quot;&gt;01000, X = X+E&lt;/font&gt;&lt;div&gt;S&lt;sub&gt;1&lt;/sub&gt;S&lt;sub&gt;0&lt;/sub&gt; = 01&lt;/div&gt;&lt;div&gt;S&lt;sub&gt;3&lt;/sub&gt;S&lt;sub&gt;2&lt;/sub&gt;&amp;nbsp;= 01&lt;br&gt;&lt;/div&gt;" style="ellipse;whiteSpace=wrap;html=1;" parent="1" vertex="1">
          <mxGeometry x="530" y="100" width="135" height="80" as="geometry" />
        </mxCell>
        <mxCell id="VLnAZFGWWy1XBWKnYpFV-26" style="edgeStyle=orthogonalEdgeStyle;rounded=0;orthogonalLoop=1;jettySize=auto;html=1;exitX=0.5;exitY=1;exitDx=0;exitDy=0;entryX=0.5;entryY=0;entryDx=0;entryDy=0;curved=1;" parent="1" source="VLnAZFGWWy1XBWKnYpFV-21" target="VLnAZFGWWy1XBWKnYpFV-1" edge="1">
          <mxGeometry relative="1" as="geometry">
            <Array as="points">
              <mxPoint x="598" y="320" />
              <mxPoint x="470" y="320" />
              <mxPoint x="470" y="-275" />
              <mxPoint x="598" y="-275" />
            </Array>
          </mxGeometry>
        </mxCell>
        <mxCell id="VLnAZFGWWy1XBWKnYpFV-21" value="&lt;font color=&quot;#ff0303&quot;&gt;10000, X = F+X&lt;/font&gt;&lt;div&gt;S&lt;sub&gt;1&lt;/sub&gt;S&lt;sub&gt;0&lt;/sub&gt; = 11&lt;/div&gt;&lt;div&gt;S&lt;sub&gt;3&lt;/sub&gt;S&lt;sub&gt;2&lt;/sub&gt;&amp;nbsp;= 10&lt;br&gt;&lt;/div&gt;" style="ellipse;whiteSpace=wrap;html=1;" parent="1" vertex="1">
          <mxGeometry x="530" y="205" width="135" height="80" as="geometry" />
        </mxCell>
      </root>
    </mxGraphModel>
  </diagram>
</mxfile>
